<?xml version="1.0" encoding="utf-8"?>
<!-- Svg Vector Icons : http://www.onlinewebfonts.com/icon -->
<!DOCTYPE svg PUBLIC "-//W3C//DTD SVG 1.1//EN" "http://www.w3.org/Graphics/SVG/1.1/DTD/svg11.dtd">
<svg version="1.1" xmlns="http://www.w3.org/2000/svg" xmlns:xlink="http://www.w3.org/1999/xlink" x="0px" y="0px" viewBox="0 0 1000 1000" enable-background="new 0 0 1000 1000" xml:space="preserve">
<metadata> Svg Vector Icons : http://www.onlinewebfonts.com/icon </metadata>
<g><g transform="translate(0.000000,511.000000) scale(0.100000,-0.100000)"><path d="M2771.3,4957.1l-80.6-50.4l478.4-795.6l478.4-798.1l-161.1-1457.8L3322.7,397.4l654.6-1956.3C4475.9-3054.5,4664.7-3653.7,4778-4117c83.1-332.3,161.1-621.9,171.2-644.5c12.6-32.7,35.3-35.3,100.7-17.6c42.8,12.6,80.6,32.7,80.6,47.8c0,12.6-73,314.7-163.7,672.3c-125.9,503.6-302.1,1070.1-803.2,2568.1L3524.1,427.6L3685.3,1893l163.7,1462.8l-496,825.8c-271.9,455.7-496,828.3-498.5,828.3C2854.4,5010,2816.6,4987.3,2771.3,4957.1z"/><path d="M6220.7,2995.8c-141-30.2-229.1-78-339.9-193.9c-123.4-128.4-176.3-264.4-176.3-450.7c-2.5-375.1,327.3-669.7,700-632c523.7,52.9,767.9,667.2,425.5,1067.6C6691.5,2947.9,6432.2,3036.1,6220.7,2995.8z"/><path d="M4022.7,2665.9c-93.2-37.8-171.2-120.8-201.4-216.5c-57.9-168.7-27.7-214,513.6-757.9c277-282,543.8-533.8,586.7-561.5c45.3-27.7,226.6-100.7,402.8-158.6l322.3-108.3l15.1-88.1c12.6-75.5,0-108.3-73-206.4l-85.6-115.8L5347,561.1c-516.1,370.1-800.7,546.4-871.2,546.4c-186.3,0-327.3-143.5-327.3-329.8c0-98.2,12.6-138.5,70.5-198.9c103.2-115.8,1188.4-851,1296.6-881.2c83.1-22.7,113.3-20.1,193.9,20.1c98.2,47.9,98.2,47.9,110.8-5c27.7-118.3,118.3-800.7,108.3-813.2c-7.5-5-186.3,40.3-397.8,103.2c-211.5,62.9-415.4,115.8-455.7,115.8c-115.8,0-241.7-65.4-297.1-156.1c-47.8-78-50.4-125.9-50.4-820.8c0-843.5,2.5-856.1,191.3-939.1c90.6-40.3,125.9-45.3,206.4-25.2c115.8,32.7,198.9,115.8,231.7,231.6c15.1,47.8,25.2,282,25.2,523.7c0,402.9,2.5,435.6,45.3,425.5c319.8-90.6,878.7-259.3,893.8-271.9c12.6-10.1-110.8-219.1-269.4-463.3c-198.9-302.1-385.2-629.5-584.1-1027.3c-269.4-541.3-292.1-594.2-279.5-699.9c10.1-88.1,32.8-128.4,103.2-193.9c75.5-70.5,108.3-83.1,214-83.1c85.6,0,141,15.1,188.8,52.9c42.8,35.3,173.7,266.9,357.5,634.5c236.7,470.8,380.2,715.1,765.4,1299.2c261.9,395.3,480.9,747.8,491,783c22.7,93.2-407.9,2943.3-455.7,3016.3c-20.2,32.7-55.4,65.5-78.1,73c-22.6,10.1-183.8-5-360-30.2l-319.8-45.3l-400.3,133.4l-400.3,130.9l-478.4,475.9C4277,2676,4191.4,2731.4,4022.7,2665.9z"/></g></g>
</svg>