<svg id="svg" version="1.1" xmlns="http://www.w3.org/2000/svg" xmlns:xlink="http://www.w3.org/1999/xlink" width="400" height="316.02209944751377" viewBox="0, 0, 400,316.02209944751377"><g id="svgg"><path id="path0" d="M232.044 13.930 C 232.044 15.514,238.068 21.057,245.430 26.249 C 275.392 47.379,298.434 92.721,303.686 140.884 L 305.192 154.696 180.149 154.696 C 40.836 154.696,39.779 154.795,39.779 167.811 C 39.779 175.135,47.942 180.351,79.435 193.147 C 100.991 201.906,108.287 197.867,108.287 177.174 C 108.287 171.107,108.879 170.712,119.890 169.428 C 127.685 168.519,132.696 166.605,135.161 163.595 C 139.705 158.048,301.479 156.397,303.324 161.878 C 306.809 172.237,306.006 172.376,242.702 172.376 L 183.158 172.376 184.684 188.398 C 185.524 197.210,186.479 204.735,186.807 205.120 C 187.135 205.505,198.691 203.692,212.486 201.093 C 243.133 195.317,299.016 187.782,300.463 189.229 C 302.846 191.613,293.286 221.199,284.128 239.779 C 273.068 262.219,256.784 281.820,242.011 290.478 C 232.469 296.070,229.591 300.985,234.192 303.829 C 248.792 312.852,296.243 248.937,306.354 206.630 C 308.387 198.122,310.368 189.917,310.757 188.398 C 311.146 186.878,313.377 185.635,315.716 185.635 C 320.464 185.635,323.181 180.745,321.241 175.691 C 320.542 173.867,318.259 172.376,316.168 172.376 C 313.202 172.376,312.581 170.920,313.341 165.746 C 314.252 159.535,314.926 159.116,324.008 159.116 C 329.339 159.116,333.702 158.122,333.702 156.906 C 333.702 155.691,329.227 154.696,323.757 154.696 C 318.287 154.696,313.812 153.774,313.812 152.646 C 313.812 130.797,303.245 91.133,291.250 67.963 C 275.202 36.962,232.044 -2.425,232.044 13.930 M132.841 102.896 C 114.098 118.668,129.471 149.422,153.815 144.855 C 174.350 141.003,179.636 110.021,161.370 100.575 C 151.493 95.468,140.618 96.352,132.841 102.896 " stroke="none" fill="#000000" fill-rule="evenodd"></path></g></svg>