<svg id="svg" version="1.1" xmlns="http://www.w3.org/2000/svg" xmlns:xlink="http://www.w3.org/1999/xlink" width="400" height="400" viewBox="0, 0, 400,400"><g id="svgg"><path id="path0" d="M232.076 67.065 C 229.041 68.337,227.672 71.068,225.760 79.667 C 225.189 82.233,224.115 87.033,223.373 90.333 C 222.631 93.633,221.728 97.683,221.365 99.333 C 221.003 100.983,220.136 104.883,219.438 108.000 C 218.740 111.117,217.789 115.367,217.324 117.445 C 216.860 119.523,216.265 121.572,216.001 121.998 C 215.560 122.713,205.485 118.443,182.767 107.913 C 179.706 106.494,177.078 105.333,176.928 105.333 C 176.778 105.333,171.783 103.054,165.828 100.269 C 142.993 89.588,140.264 89.297,119.884 95.374 C 91.664 103.788,23.469 127.067,21.306 129.025 C 17.603 132.376,17.328 137.910,19.352 168.333 C 20.575 186.722,21.251 195.735,24.325 234.667 C 24.890 241.817,25.669 251.867,26.055 257.000 C 26.654 264.941,27.033 266.907,28.600 270.178 C 30.106 273.322,30.280 274.158,29.554 274.760 C 26.233 277.516,29.580 280.220,61.656 300.695 C 64.217 302.329,74.092 308.859,83.601 315.206 C 118.282 338.354,121.353 338.525,163.667 319.655 C 173.098 315.450,184.444 310.853,193.000 307.772 C 203.527 303.982,208.938 301.933,221.000 297.172 C 227.967 294.422,234.867 291.795,236.333 291.334 C 248.423 287.538,255.985 282.021,255.996 276.990 C 256.000 274.965,253.807 270.138,252.416 269.114 C 252.004 268.811,263.217 268.712,277.333 268.895 C 312.335 269.348,376.545 268.331,378.837 267.286 C 383.956 264.954,381.489 256.232,373.865 249.705 L 371.194 247.419 371.930 239.210 C 374.956 205.495,378.552 172.182,381.308 152.333 C 382.943 140.561,382.148 127.664,377.672 93.333 C 377.122 89.117,376.353 83.028,375.963 79.803 C 374.555 68.177,373.565 67.614,353.333 66.934 C 328.839 66.111,234.106 66.213,232.076 67.065 M366.512 73.680 C 367.789 75.051,368.046 77.017,369.996 100.333 C 370.554 107.005,370.994 111.024,372.693 124.949 C 373.308 129.987,372.911 131.372,370.377 133.032 C 368.981 133.947,361.607 134.059,305.734 134.017 C 249.668 133.974,242.667 134.082,242.667 134.984 C 242.667 136.352,243.402 136.398,290.000 137.914 C 302.650 138.325,320.800 138.967,330.333 139.339 C 339.867 139.712,353.142 140.013,359.833 140.009 L 372.000 140.000 372.002 145.500 C 372.003 148.525,371.707 154.900,371.343 159.667 C 370.709 167.994,370.393 173.544,368.329 212.667 C 366.150 253.974,366.527 253.065,351.667 252.883 C 348.733 252.847,322.258 252.597,292.833 252.327 L 239.333 251.836 239.333 247.918 C 239.333 245.763,239.429 244.000,239.546 244.000 C 239.662 244.000,241.387 244.484,243.379 245.076 C 258.526 249.579,273.473 234.668,264.089 224.416 C 259.664 219.582,250.625 217.930,243.091 220.578 L 239.549 221.823 238.764 191.078 C 238.332 174.169,237.861 155.799,237.716 150.258 C 237.365 136.799,236.073 134.143,227.487 129.231 C 224.300 127.407,223.912 126.957,224.201 125.415 C 224.381 124.453,225.022 121.117,225.627 118.000 C 229.163 99.762,230.356 92.808,231.581 83.319 C 232.584 75.544,233.465 73.979,237.653 72.536 C 241.521 71.203,365.228 72.302,366.512 73.680 M292.852 92.316 C 278.372 96.395,278.849 107.539,293.651 110.972 C 309.145 114.565,323.287 104.412,314.407 96.069 C 310.420 92.324,299.546 90.430,292.852 92.316 M298.611 96.908 C 298.458 97.041,296.999 97.321,295.368 97.529 C 293.450 97.775,292.743 97.693,293.368 97.298 C 294.259 96.734,299.236 96.364,298.611 96.908 M145.667 99.920 C 150.744 101.498,157.295 104.020,162.000 106.208 C 164.017 107.145,168.367 108.993,171.667 110.313 C 174.967 111.633,178.267 112.982,179.000 113.311 C 182.244 114.767,185.404 116.092,191.000 118.343 C 194.300 119.670,197.900 121.142,199.000 121.614 C 200.100 122.086,203.985 123.633,207.633 125.051 C 214.520 127.728,223.003 132.503,227.748 136.374 L 230.495 138.616 231.258 147.141 C 232.162 157.252,233.236 195.767,233.798 238.205 L 234.202 268.744 231.195 271.585 C 227.888 274.709,227.963 274.669,214.333 280.662 C 213.600 280.985,210.954 282.168,208.453 283.291 C 205.953 284.414,203.748 285.333,203.554 285.333 C 203.360 285.333,202.256 285.759,201.101 286.279 C 199.945 286.800,196.954 288.150,194.453 289.279 C 191.953 290.409,189.761 291.333,189.584 291.333 C 189.406 291.333,187.852 291.975,186.130 292.760 C 184.409 293.545,177.600 296.513,171.000 299.355 C 159.919 304.127,152.991 307.159,149.667 308.690 C 145.177 310.760,137.032 313.453,132.271 314.442 L 126.738 315.592 120.535 313.742 C 117.124 312.724,113.433 311.487,112.333 310.994 C 111.233 310.500,108.833 309.440,107.000 308.639 C 105.167 307.837,102.017 306.433,100.000 305.519 C 94.960 303.234,62.661 287.143,57.333 284.262 C 54.950 282.973,49.250 279.962,44.667 277.571 C 30.319 270.085,30.266 269.945,29.704 238.333 C 29.496 226.600,29.023 211.900,28.653 205.667 C 28.282 199.433,27.683 188.183,27.321 180.667 C 26.959 173.150,26.321 160.614,25.903 152.808 C 25.002 136.010,25.008 135.988,30.503 133.575 C 37.126 130.668,37.632 130.488,51.000 126.311 C 55.400 124.936,59.300 123.588,59.667 123.316 C 60.033 123.043,61.373 122.598,62.645 122.326 C 63.916 122.053,65.416 121.581,65.978 121.276 C 67.059 120.690,83.653 115.192,102.000 109.341 C 108.050 107.412,115.100 105.149,117.667 104.313 C 120.233 103.476,124.583 102.140,127.333 101.342 C 130.083 100.545,133.083 99.640,134.000 99.332 C 136.822 98.384,141.478 98.618,145.667 99.920 M181.558 125.318 C 165.744 127.122,163.833 137.932,178.658 141.720 C 197.616 146.563,215.599 134.163,199.577 127.295 C 197.358 126.344,185.785 124.230,185.684 124.758 C 185.675 124.808,183.818 125.060,181.558 125.318 M116.910 127.001 C 107.016 130.123,104.900 136.712,112.544 140.601 C 127.818 148.371,152.893 140.329,143.301 130.736 C 139.157 126.593,124.694 124.546,116.910 127.001 M57.333 127.966 C 40.891 131.031,41.452 142.134,58.181 144.745 C 72.246 146.940,83.576 142.389,82.183 135.103 C 81.225 130.095,67.326 126.103,57.333 127.966 M221.333 140.668 C 220.417 140.978,213.367 143.231,205.667 145.675 C 197.967 148.119,190.917 150.369,190.000 150.676 C 189.083 150.983,186.083 151.872,183.333 152.651 C 180.583 153.431,176.683 154.538,174.667 155.112 C 170.719 156.237,159.391 159.730,156.667 160.663 C 155.750 160.977,152.750 161.879,150.000 162.667 C 147.250 163.455,144.250 164.362,143.333 164.684 C 124.511 171.284,105.539 170.684,88.333 162.943 C 87.233 162.448,82.733 160.662,78.333 158.975 C 73.933 157.287,67.183 154.693,63.333 153.210 C 40.409 144.381,24.871 140.984,43.845 148.950 C 48.147 150.756,53.249 152.930,55.183 153.782 C 57.116 154.633,60.566 156.094,62.849 157.028 C 65.132 157.962,67.600 158.997,68.333 159.327 C 69.067 159.657,71.167 160.560,73.000 161.333 C 74.833 162.107,76.933 163.013,77.667 163.346 C 78.400 163.680,81.700 165.029,85.000 166.343 C 91.806 169.054,91.087 168.737,101.333 173.541 C 105.550 175.518,109.649 177.855,110.443 178.734 C 112.093 180.563,112.558 184.295,116.332 226.000 C 116.880 232.050,117.790 241.950,118.354 248.000 C 119.935 264.946,121.224 279.257,122.269 291.474 C 123.231 302.719,123.490 304.000,124.801 304.000 C 125.594 304.000,125.419 298.571,123.664 268.667 C 119.035 189.790,118.808 183.340,120.571 180.489 C 122.919 176.688,125.251 175.760,169.333 161.070 C 195.428 152.375,213.705 146.183,215.667 145.374 C 216.400 145.072,218.926 144.111,221.280 143.239 C 227.232 141.033,227.281 138.659,221.333 140.668 M342.766 147.089 C 335.212 149.140,330.667 153.774,330.667 159.424 C 330.667 170.519,350.593 174.602,361.196 165.680 C 371.951 156.630,358.309 142.871,342.766 147.089 M209.446 157.355 C 199.384 159.615,196.451 181.601,205.432 187.444 C 214.718 193.486,223.698 186.060,223.642 172.384 C 223.598 161.550,217.852 155.466,209.446 157.355 M218.473 166.716 C 219.282 168.339,219.923 170.567,219.896 171.667 C 219.848 173.629,219.837 173.622,219.348 171.333 C 218.551 167.597,217.476 165.407,215.507 163.505 C 213.754 161.812,213.746 161.776,215.333 162.747 C 216.250 163.307,217.663 165.093,218.473 166.716 M357.384 162.939 C 356.349 164.186,352.444 166.009,350.899 165.966 C 350.221 165.947,350.867 165.446,352.333 164.854 C 353.800 164.261,355.592 163.376,356.315 162.888 C 358.008 161.745,358.361 161.762,357.384 162.939 M295.156 182.018 C 278.377 186.242,278.415 202.579,295.211 205.452 C 309.344 207.870,321.377 197.202,314.961 187.944 C 311.590 183.080,302.154 180.257,295.156 182.018 M138.734 183.036 C 128.860 187.321,126.767 206.384,135.478 212.695 C 144.605 219.306,154.861 210.177,153.817 196.372 C 153.037 186.050,146.041 179.864,138.734 183.036 M148.620 192.151 C 149.032 193.335,149.095 194.010,148.760 193.651 C 148.049 192.892,147.096 190.000,147.557 190.000 C 147.729 190.000,148.207 190.968,148.620 192.151 M308.937 198.092 C 307.412 199.803,303.954 201.356,301.855 201.273 C 300.691 201.227,300.860 201.062,302.577 200.568 C 303.811 200.212,305.911 199.207,307.244 198.334 C 310.277 196.345,310.525 196.310,308.937 198.092 M64.697 211.406 C 53.123 222.980,65.444 246.792,78.807 238.677 C 87.098 233.643,86.238 216.435,77.399 210.504 C 74.230 208.378,67.227 208.875,64.697 211.406 M178.666 213.138 C 169.180 218.918,168.575 236.702,177.655 242.865 C 187.706 249.688,198.541 235.711,194.292 221.402 C 192.042 213.824,184.278 209.718,178.666 213.138 M190.348 223.333 L 190.728 225.667 189.761 223.123 C 189.229 221.723,188.252 219.923,187.590 219.123 C 186.695 218.040,186.846 218.094,188.177 219.333 C 189.179 220.266,190.135 222.027,190.348 223.333 M65.934 224.406 C 65.970 225.546,66.854 228.171,67.897 230.239 C 70.050 234.507,70.035 234.699,67.747 232.231 C 65.856 230.191,64.637 226.004,64.733 221.871 C 64.811 218.524,65.813 220.640,65.934 224.406 M260.838 235.253 C 259.425 237.161,255.572 240.001,254.401 239.998 C 253.997 239.996,254.579 239.438,255.695 238.758 C 258.194 237.234,261.307 233.617,261.411 232.116 C 261.473 231.212,261.549 231.238,261.810 232.253 C 261.986 232.942,261.549 234.292,260.838 235.253 M212.119 241.372 C 205.783 243.912,202.362 254.311,204.442 264.709 C 206.004 272.519,216.792 275.830,222.401 270.221 C 233.426 259.196,225.204 236.125,212.119 241.372 M220.206 247.500 C 221.091 248.325,222.030 249.750,222.292 250.667 C 222.668 251.979,222.457 251.839,221.301 250.012 C 220.492 248.735,219.344 247.319,218.749 246.866 C 218.154 246.413,217.876 246.033,218.132 246.021 C 218.388 246.010,219.322 246.675,220.206 247.500 M144.014 267.411 C 133.498 271.606,132.578 292.682,142.673 298.096 C 153.020 303.646,163.258 288.215,158.204 274.689 C 155.879 268.468,149.528 265.211,144.014 267.411 M152.190 273.500 C 153.690 274.914,155.657 279.232,155.069 279.819 C 154.921 279.968,154.455 279.046,154.034 277.770 C 153.613 276.494,152.492 274.674,151.543 273.725 C 149.428 271.610,149.980 271.417,152.190 273.500 " stroke="none" fill="#000000" fill-rule="evenodd"></path></g></svg>